<?xml version="1.0" encoding="UTF-8"?>
<svg xmlns="http://www.w3.org/2000/svg" viewBox="0 0 235 32">

  <g fill="#0c0c0c">

    <!-- Squares -->
    <rect x="1"  y="23" width="8.4" height="8.4" rx="1.5" ry="1.5"/>
    <rect x="1"  y="12" width="8.4" height="8.4" rx="1.5" ry="1.5"/>
    <rect x="1"  y="1"  width="8.4" height="8.4" rx="1.5" ry="1.5"/>
    <rect x="12" y="1"  width="8.4" height="8.4" rx="1.5" ry="1.5"/>
    <rect x="23" y="12" width="8.4" height="8.4" rx="1.5" ry="1.5"/>
    <rect x="23" y="23" width="8.4" height="8.4" rx="1.5" ry="1.5"/>


    <!-- r -->
    <path  d="M43.39,10.59v-1.45h-2.24v15.27h2.24v-9.27c0-2.56,1.24-3.86,3.68-3.86h1.03v-2.14h-.76c-1.8,0-3.12.48-3.95,1.45Z"/>
    <!-- a -->
    <path d="M54.91,8.69c-3.59,0-5.92,1.99-5.94,5.07v.3h2.24v-.3c.02-2.21,1.92-3,3.68-3,2.04,0,3.42,1,3.42,2.5,0,.88-.8,1.38-2.6,1.64l-2.26.35c-2.9.44-4.63,2.15-4.63,4.56,0,2.92,2.3,5.04,5.48,5.04,1.82,0,3.18-.81,4.01-1.74v1.3h2.24v-11.06c0-2.78-2.27-4.66-5.64-4.66Z
      M54.62,22.89c-1.66,0-3.45-.96-3.45-3.07,0-1.46,1-2.4,2.83-2.67l1.96-.32c1.07-.16,1.86-.4,2.35-.7v3.27h.01c0,2.16-1.92,3.49-3.7,3.49Z"/>
    <!-- d -->
    <path d="M75.89,11.37c-1.41-1.69-3.55-2.67-5.9-2.67-4.45,0-7.95,3.55-7.95,8.08s3.49,8.08,7.95,8.08c2.35,0,4.49-.99,5.9-2.67v2.23h2.24V3.19h-2.24v8.18Z
      M70.12,22.72c-2.78,0-5.73-2.08-5.73-5.94s2.96-5.94,5.73-5.94,5.76,2.04,5.76,5.94-2.9,5.94-5.76,5.94Z"/>
    <!-- i -->
    <path d="M80.74,24.41h2.24v-15.27h-2.24v15.27Z"/>
    <path d="M81.86,4.76c-.79,0-1.44.64-1.44,1.42s.64,1.42,1.44,1.42,1.44-.65,1.44-1.42-.66-1.42-1.44-1.42Z"/>
    <!-- c -->
    <path d="M92.9,10.84c2.34,0,4.32,1.34,5.05,3.41l.07.2h2.44l-.11-.38c-.93-3.27-3.85-5.38-7.43-5.38-4.45,0-7.94,3.55-7.94,8.08s3.49,8.08,7.94,8.08c3.58,0,6.5-2.11,7.43-5.38l.11-.38h-2.44l-.07.2c-.73,2.07-2.71,3.41-5.05,3.41-3.12,0-5.57-2.6-5.57-5.93s2.45-5.93,5.57-5.93Z"/>
    <!-- a -->
    <path d="M107.85,8.69c-3.59,0-5.92,1.99-5.93,5.07v.3h2.24v-.3c.02-2.21,1.92-3,3.68-3,2.04,0,3.42,1,3.42,2.5,0,.88-.8,1.38-2.6,1.64l-2.26.35c-2.9.44-4.63,2.15-4.63,4.56,0,2.92,2.3,5.04,5.47,5.04,1.82,0,3.18-.81,4.01-1.74v1.3h2.24v-11.06c0-2.78-2.27-4.66-5.63-4.66Z
      M107.55,22.89c-1.66,0-3.45-.96-3.45-3.07,0-1.46,1-2.4,2.83-2.67l1.96-.32c1.08-.16,1.86-.4,2.35-.7v3.27h.01c0,2.16-1.92,3.49-3.7,3.49Z"/>
    <!-- l -->
    <path d="M116.06,24.4h2.24V3.19h-2.24v21.21Z"/>
    <!-- n -->
    <path d="M131.86,8.7h.01c-1.79,0-3.39.72-4.46,1.98v-1.53h-2.24v15.27h2.24v-9c0-2.83,1.67-4.66,4.25-4.66,2.42,0,3.92,1.59,3.92,4.16v9.49h2.24v-9.59c0-3.66-2.39-6.12-5.96-6.12Z"/>
    <!-- u -->
    <path d="M149.99,18.48c0,2.53-1.58,4.24-3.92,4.24s-3.9-1.7-3.9-4.24v-9.34h-2.25v9.31c0,3.83,2.47,6.41,6.15,6.41s6.17-2.57,6.17-6.41v-9.31h-2.25v9.34Z"/>
    <!-- m -->
    <path d="M169.92,8.7h-.01c-2.02,0-3.62.88-4.68,2.57-.92-1.65-2.56-2.58-4.57-2.58-1.6,0-3,.61-3.95,1.72v-1.27h-2.24v15.27h2.24v-9.89c0-2.21,1.47-3.76,3.58-3.76s3.48,1.43,3.48,3.64v10.01h2.24v-9.89c0-2.21,1.46-3.76,3.56-3.76s3.49,1.46,3.49,3.64v10.01h2.25v-10.01c0-3.36-2.22-5.7-5.39-5.7Z"/>
    <!-- e -->
    <path d="M184.55,8.71l-.02-.02c-4.33,0-7.6,3.47-7.6,8.07s3.31,8.1,7.71,8.1c3.3,0,6.02-1.98,6.96-5.04l.12-.39h-2.42l-.08.19c-.77,1.93-2.49,3.09-4.6,3.09-2.79,0-4.98-2.14-5.31-5.13h12.56l.05-.24c.05-.25.07-.53.07-1.01,0-4.2-3.34-7.62-7.44-7.62Z
    M179.34,15.59c.45-2.81,2.55-4.75,5.18-4.75s4.97,2.11,5.07,4.75h-10.25Z"/>
    <!-- r -->
    <path d="M195.84,10.58v-1.44h-2.24v15.27h2.24v-9.27c0-2.56,1.24-3.86,3.68-3.86h1.03v-2.14h-.77c-1.79,0-3.11.48-3.94,1.44Z"/>
    <!-- i -->
    <path d="M202.54,24.41h2.24v-15.27h-2.24v15.27Z"/>
    <path d="M203.65,4.76c-.79,0-1.44.64-1.44,1.42s.64,1.42,1.44,1.42,1.44-.65,1.44-1.42-.66-1.42-1.44-1.42Z"/>
    <!-- c -->
    <path d="M214.6,10.84c2.34,0,4.32,1.34,5.04,3.41l.07.2h2.44l-.11-.38c-.93-3.27-3.85-5.38-7.43-5.38-4.45,0-7.93,3.55-7.93,8.08s3.49,8.08,7.93,8.08c3.58,0,6.5-2.11,7.43-5.38l.11-.38h-2.44l-.07.2c-.73,2.07-2.71,3.41-5.04,3.41-3.12,0-5.57-2.6-5.57-5.93s2.45-5.93,5.57-5.93Z"/>
    <!-- s -->
    <path d="M228.93,15.69h0s-.01-.01-.01-.01c-2.07-.45-2.95-1.19-2.95-2.5,0-1.18.67-2.44,2.56-2.44,1.71,0,2.92,1.24,2.94,3.03v.3h2.24v-.3c0-2.99-2.1-5.07-5.1-5.07-3.37,0-4.88,2.27-4.88,4.52s1.53,3.82,4.67,4.47c2.29.49,3.1,1.18,3.1,2.63s-1.06,2.5-2.63,2.5c-1.39,0-2.91-.96-2.98-3.08v-.29h-2.26v.31c.11,3.01,2.26,5.11,5.24,5.11,3.2,0,4.88-2.3,4.88-4.57,0-3.19-2.44-4.13-4.82-4.61Z"/>

  </g>

</svg>
